<svg id="visual" viewBox="0 0 675 900" width="675" height="900" xmlns="http://www.w3.org/2000/svg" xmlns:xlink="http://www.w3.org/1999/xlink" version="1.1"><g><g transform="translate(563 704)"><path d="M14.1 -14.4C18.8 -9.3 23.5 -4.7 25.2 1.7C26.9 8.1 25.6 16.1 20.8 18.3C16.1 20.5 8.1 16.8 2.7 14.2C-2.7 11.5 -5.4 9.8 -11.8 7.6C-18.3 5.4 -28.5 2.7 -30.8 -2.3C-33.1 -7.4 -27.6 -14.7 -21.2 -19.8C-14.7 -24.9 -7.4 -27.7 -1.3 -26.3C4.7 -25 9.3 -19.5 14.1 -14.4Z" stroke="#dae5e1" fill="none" stroke-width="1"></path></g><g transform="translate(95 851)"><path d="M16.5 -16C20.9 -12 23.9 -6 22.2 -1.7C20.5 2.6 14.1 5.2 9.7 9C5.2 12.8 2.6 17.9 -1.5 19.4C-5.7 20.9 -11.4 19 -14.5 15.2C-17.6 11.4 -18.1 5.7 -17.8 0.3C-17.4 -5 -16.3 -10.1 -13.2 -14C-10.1 -18 -5 -21 0.5 -21.5C6 -21.9 12 -19.9 16.5 -16Z" stroke="#dae5e1" fill="none" stroke-width="1"></path></g><g transform="translate(396 472)"><path d="M10.9 -9.5C14.2 -7.5 17.2 -3.8 17.4 0.2C17.7 4.2 15.1 8.4 11.7 11.8C8.4 15.3 4.2 18.1 -0.9 19C-6.1 20 -12.1 19.1 -16.9 15.6C-21.6 12.1 -25 6.1 -24.1 0.9C-23.3 -4.3 -18.1 -8.7 -13.4 -10.7C-8.7 -12.7 -4.3 -12.4 -0.3 -12.1C3.8 -11.8 7.5 -11.5 10.9 -9.5Z" stroke="#dae5e1" fill="none" stroke-width="1"></path></g><g transform="translate(450 714)"><path d="M7.6 -9.8C10.2 -5 12.9 -2.5 13.7 0.8C14.6 4.1 13.5 8.3 10.9 11.1C8.3 13.8 4.1 15.3 -0.8 16C-5.7 16.8 -11.4 16.9 -14.8 14.2C-18.2 11.4 -19.3 5.7 -19.7 -0.4C-20.1 -6.6 -19.9 -13.1 -16.5 -17.9C-13.1 -22.8 -6.6 -25.9 -2 -23.8C2.5 -21.8 5 -14.6 7.6 -9.8Z" stroke="#dae5e1" fill="none" stroke-width="1"></path></g><g transform="translate(296 564)"><path d="M10.6 -7C15.8 -5.4 23.5 -2.7 25.2 1.7C26.9 6.1 22.6 12.2 17.4 18C12.2 23.7 6.1 29.2 1.9 27.3C-2.3 25.3 -4.5 16.1 -8.7 10.3C-12.8 4.5 -18.8 2.3 -21.5 -2.7C-24.2 -7.7 -23.7 -15.4 -19.5 -17C-15.4 -18.6 -7.7 -14 -2.5 -11.5C2.7 -9 5.4 -8.5 10.6 -7Z" stroke="#dae5e1" fill="none" stroke-width="1"></path></g><g transform="translate(302 236)"><path d="M13.4 -13.4C15.6 -11.2 14.3 -5.6 13.8 -0.6C13.2 4.5 13.4 9 11.2 10.4C9 11.8 4.5 10 -0.7 10.7C-5.9 11.3 -11.7 14.5 -16.1 13.1C-20.4 11.7 -23.2 5.9 -21.6 1.6C-20 -2.7 -14.1 -5.5 -9.8 -7.6C-5.5 -9.8 -2.7 -11.4 1.4 -12.8C5.6 -14.2 11.2 -15.6 13.4 -13.4Z" stroke="#dae5e1" fill="none" stroke-width="1"></path></g><g transform="translate(479 305)"><path d="M18.7 -15.8C24.8 -12.6 30.6 -6.3 31.7 1.1C32.7 8.5 29 16.9 23 21.2C16.9 25.6 8.5 25.8 1.8 24C-4.8 22.1 -9.5 18.2 -14.6 13.9C-19.7 9.5 -25.1 4.8 -26.3 -1.1C-27.4 -7 -24.2 -14 -19.1 -17.2C-14 -20.5 -7 -19.9 -0.3 -19.6C6.3 -19.2 12.6 -19.1 18.7 -15.8Z" stroke="#dae5e1" fill="none" stroke-width="1"></path></g><g transform="translate(127 48)"><path d="M9.7 -8.6C13.1 -6.2 16.8 -3.1 19 2.2C21.1 7.4 21.7 14.9 18.3 16.9C14.9 19 7.4 15.6 2.3 13.3C-2.7 10.9 -5.5 9.6 -7.8 7.5C-10.1 5.5 -11.9 2.7 -13.8 -1.9C-15.7 -6.6 -17.7 -13.2 -15.4 -15.5C-13.2 -17.8 -6.6 -15.9 -1.7 -14.2C3.1 -12.5 6.2 -10.9 9.7 -8.6Z" stroke="#dae5e1" fill="none" stroke-width="1"></path></g><g transform="translate(588 51)"><path d="M7.9 -6.9C11.6 -4.2 17 -2.1 19.1 2.1C21.2 6.3 20 12.6 16.3 14.2C12.6 15.9 6.3 13 0.9 12.2C-4.5 11.3 -9 12.4 -11.8 10.7C-14.5 9 -15.4 4.5 -15.5 -0.1C-15.6 -4.7 -14.9 -9.4 -12.2 -12.1C-9.4 -14.8 -4.7 -15.4 -1.3 -14.1C2.1 -12.8 4.2 -9.5 7.9 -6.9Z" stroke="#dae5e1" fill="none" stroke-width="1"></path></g><g transform="translate(78 405)"><path d="M11.3 -9.8C14.7 -7.9 17.5 -4 17 -0.4C16.6 3.1 13 6.2 9.6 8.1C6.2 10.1 3.1 10.8 0 10.8C-3.1 10.8 -6.2 10 -7.7 8.1C-9.2 6.2 -9.1 3.1 -10.9 -1.8C-12.8 -6.8 -16.5 -13.5 -15 -15.4C-13.5 -17.3 -6.8 -14.4 -1.4 -13C4 -11.6 7.9 -11.7 11.3 -9.8Z" stroke="#dae5e1" fill="none" stroke-width="1"></path></g><g transform="translate(273 645)"><path d="M13.8 -13.8C15.7 -12 13.4 -6 12.5 -0.9C11.5 4.1 12 8.3 10.1 9.7C8.3 11.2 4.1 9.9 -0.8 10.7C-5.7 11.5 -11.4 14.3 -13.7 12.8C-16.1 11.4 -15.1 5.7 -14 1.1C-12.9 -3.5 -11.8 -7.1 -9.4 -8.9C-7.1 -10.7 -3.5 -10.7 1.2 -11.9C6 -13.2 12 -15.6 13.8 -13.8Z" stroke="#dae5e1" fill="none" stroke-width="1"></path></g><g transform="translate(569 547)"><path d="M11.9 -13.4C14.7 -9.2 15.5 -4.6 16.1 0.6C16.6 5.7 16.9 11.4 14.2 17.2C11.4 23 5.7 28.7 1.2 27.6C-3.4 26.4 -6.8 18.3 -9.7 12.6C-12.6 6.8 -15 3.4 -14.9 0.2C-14.7 -3 -11.9 -6.1 -9 -10.3C-6.1 -14.4 -3 -19.7 0.8 -20.4C4.6 -21.2 9.2 -17.5 11.9 -13.4Z" stroke="#dae5e1" fill="none" stroke-width="1"></path></g><g transform="translate(284 323)"><path d="M7.3 -9.5C10.1 -4.4 13.6 -2.2 16.3 2.8C19.1 7.8 21.2 15.5 18.3 19.2C15.5 22.8 7.8 22.4 0.2 22.1C-7.3 21.9 -14.6 21.9 -17.1 18.2C-19.6 14.6 -17.4 7.3 -16.8 0.7C-16.1 -5.9 -16.9 -11.9 -14.4 -17C-11.9 -22.1 -5.9 -26.3 -1.9 -24.5C2.2 -22.6 4.4 -14.6 7.3 -9.5Z" stroke="#dae5e1" fill="none" stroke-width="1"></path></g><g transform="translate(56 139)"><path d="M7.1 -8C10 -4.1 13.9 -2.1 16.2 2.3C18.5 6.7 19.3 13.4 16.3 17C13.4 20.6 6.7 21.1 1.8 19.3C-3.1 17.5 -6.2 13.4 -9.7 9.8C-13.1 6.2 -17 3.1 -18.4 -1.4C-19.8 -5.9 -18.8 -11.8 -15.3 -15.7C-11.8 -19.5 -5.9 -21.3 -1.9 -19.4C2.1 -17.5 4.1 -11.8 7.1 -8Z" stroke="#dae5e1" fill="none" stroke-width="1"></path></g><g transform="translate(159 300)"><path d="M14.4 -15.6C19.2 -9.7 23.9 -4.8 25 1.1C26.2 7.1 23.7 14.2 19 16.3C14.2 18.5 7.1 15.6 1.5 14.2C-4.2 12.7 -8.3 12.6 -13.6 10.5C-18.9 8.3 -25.2 4.2 -27.5 -2.3C-29.8 -8.7 -27.9 -17.4 -22.7 -23.4C-17.4 -29.4 -8.7 -32.6 -1.9 -30.6C4.8 -28.7 9.7 -21.6 14.4 -15.6Z" stroke="#dae5e1" fill="none" stroke-width="1"></path></g><g transform="translate(232 107)"><path d="M17.3 -19.8C19.7 -14.9 16.9 -7.5 16.4 -0.5C15.9 6.4 17.6 12.8 15.2 17.8C12.8 22.7 6.4 26.2 -0.6 26.8C-7.6 27.4 -15.1 25 -20.3 20.1C-25.4 15.1 -28.2 7.6 -25.6 2.6C-23 -2.4 -15.1 -4.8 -9.9 -9.6C-4.8 -14.4 -2.4 -21.7 2.5 -24.3C7.5 -26.8 14.9 -24.6 17.3 -19.8Z" stroke="#dae5e1" fill="none" stroke-width="1"></path></g><g transform="translate(171 563)"><path d="M9.2 -8.6C13.5 -4.8 19.9 -2.4 20.8 0.9C21.7 4.2 17.1 8.3 12.7 10.8C8.3 13.2 4.2 14 -0.4 14.3C-4.9 14.7 -9.8 14.7 -14.9 12.2C-19.9 9.8 -25.2 4.9 -24.5 0.7C-23.9 -3.6 -17.3 -7.2 -12.2 -11C-7.2 -14.7 -3.6 -18.8 -0.6 -18.2C2.4 -17.6 4.8 -12.4 9.2 -8.6Z" stroke="#dae5e1" fill="none" stroke-width="1"></path></g><g transform="translate(450 99)"><path d="M11 -10.9C15.1 -6.9 19.8 -3.4 19.7 -0.2C19.5 3.1 14.4 6.2 10.3 9.5C6.2 12.9 3.1 16.4 0 16.4C-3.1 16.4 -6.2 12.9 -11.3 9.6C-16.5 6.2 -23.6 3.1 -24.6 -1.1C-25.7 -5.2 -20.7 -10.4 -15.5 -14.5C-10.4 -18.5 -5.2 -21.4 -0.9 -20.5C3.4 -19.6 6.9 -14.9 11 -10.9Z" stroke="#dae5e1" fill="none" stroke-width="1"></path></g><g transform="translate(403 198)"><path d="M19.5 -18.4C25.6 -13.3 31.3 -6.7 29.7 -1.6C28.1 3.5 19.3 7 13.1 12.7C7 18.3 3.5 26.2 -2.2 28.4C-7.9 30.6 -15.8 27.1 -18 21.4C-20.3 15.8 -17 7.9 -15.2 1.8C-13.4 -4.3 -13.2 -8.7 -10.9 -13.7C-8.7 -18.8 -4.3 -24.5 1.2 -25.7C6.7 -26.9 13.3 -23.4 19.5 -18.4Z" stroke="#dae5e1" fill="none" stroke-width="1"></path></g><g transform="translate(519 199)"><path d="M16.4 -14.5C19.7 -13.2 19.7 -6.6 17.9 -1.9C16 2.9 12.3 5.7 9 7C5.7 8.3 2.9 8.1 0.3 7.8C-2.3 7.5 -4.5 7.1 -6.7 5.8C-8.8 4.5 -10.9 2.3 -12.2 -1.3C-13.5 -4.9 -14.1 -9.8 -11.9 -11.1C-9.8 -12.4 -4.9 -10.2 0.8 -11C6.6 -11.8 13.2 -15.8 16.4 -14.5Z" stroke="#dae5e1" fill="none" stroke-width="1"></path></g><g transform="translate(473 412)"><path d="M17 -16.5C20.9 -13.2 22 -6.6 22.5 0.4C22.9 7.5 22.7 15 18.8 17C15 19 7.5 15.6 2.6 13C-2.3 10.4 -4.6 8.6 -9.8 6.6C-15.1 4.6 -23.4 2.3 -24.5 -1.1C-25.7 -4.6 -19.7 -9.2 -14.4 -12.4C-9.2 -15.7 -4.6 -17.7 1 -18.7C6.6 -19.7 13.2 -19.7 17 -16.5Z" stroke="#dae5e1" fill="none" stroke-width="1"></path></g><g transform="translate(78 310)"><path d="M16.8 -15.1C20 -13.6 19.7 -6.8 19.6 0C19.6 6.8 20 13.6 16.8 16.2C13.6 18.8 6.8 17.3 0.9 16.4C-5.1 15.6 -10.2 15.4 -13 12.8C-15.8 10.2 -16.3 5.1 -15.1 1.2C-13.8 -2.6 -10.9 -5.3 -8.1 -6.7C-5.3 -8.2 -2.6 -8.5 2.1 -10.5C6.8 -12.6 13.6 -16.5 16.8 -15.1Z" stroke="#dae5e1" fill="none" stroke-width="1"></path></g><g transform="translate(626 285)"><path d="M13.9 -15.7C16.6 -11.2 16.3 -5.6 15 -1.3C13.7 3 11.3 5.9 8.6 9.6C5.9 13.3 3 17.6 -0.7 18.3C-4.3 18.9 -8.6 15.9 -9.9 12.2C-11.3 8.6 -9.7 4.3 -11 -1.3C-12.4 -7 -16.7 -14 -15.3 -18.4C-14 -22.9 -7 -24.8 -0.7 -24.1C5.6 -23.4 11.2 -20.1 13.9 -15.7Z" stroke="#dae5e1" fill="none" stroke-width="1"></path></g></g></svg>